<svg width="29" height="29" viewBox="0 0 29 29" fill="none" xmlns="http://www.w3.org/2000/svg">
    <mask id="mask0_0_32" style="mask-type:alpha" maskUnits="userSpaceOnUse" x="-5" y="-5" width="39" height="39">
        <rect x="-4.83333" y="-4.83333" width="38.6667" height="38.6667" fill="#020909"/>
    </mask>
    <g mask="url(#mask0_0_32)">
        <path d="M16.7444 20L16.5944 18.85C15.7889 19.4944 14.8625 20.0046 13.8153 20.3806C12.7681 20.7565 11.6537 20.9444 10.4722 20.9444C7.54337 20.9444 5.06829 19.5 3.5 16.5C1.93171 13.5 1.5 9.5 3.5 5.5C5.5 1.5 8.5 0 12.5 0C16.5 0 19.5 1.5 21.5 5.5C23.5 9.5 23.0683 13.5 21.5 16.5C19.9317 19.5 17.4566 20.9444 14.5278 20.9444C13.3463 20.9444 12.2319 20.7565 11.1847 20.3806C10.1375 20.0046 9.21106 19.4944 8.40556 18.85L8.25556 20L6.74444 20Z" fill="currentColor"/>
    </g>
</svg>